<svg version="1.1" id="Layer_1" xmlns="http://www.w3.org/2000/svg" xmlns:xlink="http://www.w3.org/1999/xlink" x="0px" y="0px"
	 width="100%" viewBox="0 0 500 500" enable-background="new 0 0 500 500" xml:space="preserve">
<path fill="#1FAAFF" opacity="1.000000" stroke="none" 
	d="
M1.000000,469.000000 
	C1.000000,323.975922 1.000000,178.951843 1.000500,33.070999 
	C4.816985,14.786910 15.271006,4.164517 33.000000,1.000000 
	C178.690750,1.000000 324.381500,1.000000 470.728333,1.321333 
	C479.525208,3.086738 486.906647,6.551650 491.620544,13.233676 
	C495.605988,18.883150 497.936859,25.699865 501.000000,31.999996 
	C501.000000,177.357407 501.000000,322.714813 500.999512,468.928345 
	C498.303619,475.723999 496.203857,482.036926 492.770538,487.513885 
	C487.865143,495.339142 479.349030,498.243225 471.000000,501.000000 
	C324.309265,501.000000 177.618515,501.000000 30.287018,500.680695 
	C13.359724,496.062042 4.037253,485.401550 1.000000,469.000000 
M333.500000,180.967056 
	C323.668793,180.967194 313.837555,180.959290 304.006348,180.969330 
	C289.429108,180.984222 280.008118,190.424881 280.005859,205.101059 
	C279.993500,285.083740 279.990875,365.066406 280.008423,445.049072 
	C280.011749,460.166321 289.501282,469.588593 304.698944,469.614899 
	C323.194916,469.646912 341.704071,469.194183 360.182678,469.761108 
	C374.468109,470.199402 385.645538,459.497681 385.409576,444.607086 
	C384.807709,406.624878 385.211060,368.626709 385.210236,330.634949 
	C385.209320,288.644043 385.248016,246.653091 385.181305,204.662292 
	C385.158020,190.021393 376.005096,180.988327 361.494141,180.969391 
	C352.496094,180.957657 343.498047,180.967117 333.500000,180.967056 
M266.825867,100.456108 
	C267.078918,103.770332 267.016632,107.144508 267.633423,110.389595 
	C274.472321,146.371170 306.950348,169.294189 343.333710,163.921677 
	C380.512177,158.431763 406.136383,120.757034 397.450378,84.355133 
	C389.130402,49.487259 358.929535,28.522797 322.683990,33.125698 
	C292.448425,36.965378 265.504578,65.138199 266.825867,100.456108 
M124.396400,452.112183 
	C151.830246,476.807739 193.370316,475.189819 217.743988,448.476379 
	C242.541260,421.298645 241.098557,379.804413 214.495651,355.051514 
	C187.953094,330.354797 145.807922,331.461670 121.391701,357.496643 
	C95.827225,384.756012 96.909210,425.707184 124.396400,452.112183 
z"/>
<path fill="#F9FDFF" opacity="1.000000" stroke="none" 
	d="
M32.531342,1.000000 
	C15.271006,4.164517 4.816985,14.786910 1.000500,32.607117 
	C1.000000,22.406796 1.000000,11.813590 1.000000,1.000000 
	C11.353187,1.000000 21.707935,1.000000 32.531342,1.000000 
z"/>
<path fill="#F9FDFF" opacity="1.000000" stroke="none" 
	d="
M471.468658,501.000000 
	C479.349030,498.243225 487.865143,495.339142 492.770538,487.513885 
	C496.203857,482.036926 498.303619,475.723999 500.999512,469.392212 
	C501.000000,479.590820 501.000000,490.181641 501.000000,501.000000 
	C491.313629,501.000000 481.625458,501.000000 471.468658,501.000000 
z"/>
<path fill="#F9FDFF" opacity="1.000000" stroke="none" 
	d="
M1.000000,469.468658 
	C4.037253,485.401550 13.359724,496.062042 29.823135,500.680695 
	C20.403208,501.000000 10.806414,501.000000 1.000000,501.000000 
	C1.000000,490.646729 1.000000,480.292023 1.000000,469.468658 
z"/>
<path fill="#F9FDFF" opacity="1.000000" stroke="none" 
	d="
M501.000000,31.531338 
	C497.936859,25.699865 495.605988,18.883150 491.620544,13.233676 
	C486.906647,6.551650 479.525208,3.086738 471.192200,1.321333 
	C480.927704,1.000000 490.855438,1.000000 501.000000,1.000000 
	C501.000000,11.019854 501.000000,21.041269 501.000000,31.531338 
z"/>
<path fill="#FFFFFF" opacity="1.000000" stroke="none" 
	d="
M334.000000,180.967056 
	C343.498047,180.967117 352.496094,180.957657 361.494141,180.969391 
	C376.005096,180.988327 385.158020,190.021393 385.181305,204.662292 
	C385.248016,246.653091 385.209320,288.644043 385.210236,330.634949 
	C385.211060,368.626709 384.807709,406.624878 385.409576,444.607086 
	C385.645538,459.497681 374.468109,470.199402 360.182678,469.761108 
	C341.704071,469.194183 323.194916,469.646912 304.698944,469.614899 
	C289.501282,469.588593 280.011749,460.166321 280.008423,445.049072 
	C279.990875,365.066406 279.993500,285.083740 280.005859,205.101059 
	C280.008118,190.424881 289.429108,180.984222 304.006348,180.969330 
	C313.837555,180.959290 323.668793,180.967194 334.000000,180.967056 
z"/>
<path fill="#FEFFFF" opacity="1.000000" stroke="none" 
	d="
M266.820801,99.967453 
	C265.504578,65.138199 292.448425,36.965378 322.683990,33.125698 
	C358.929535,28.522797 389.130402,49.487259 397.450378,84.355133 
	C406.136383,120.757034 380.512177,158.431763 343.333710,163.921677 
	C306.950348,169.294189 274.472321,146.371170 267.633423,110.389595 
	C267.016632,107.144508 267.078918,103.770332 266.820801,99.967453 
z"/>
<path fill="#FEFFFF" opacity="1.000000" stroke="none" 
	d="
M124.137627,451.871155 
	C96.909210,425.707184 95.827225,384.756012 121.391701,357.496643 
	C145.807922,331.461670 187.953094,330.354797 214.495651,355.051514 
	C241.098557,379.804413 242.541260,421.298645 217.743988,448.476379 
	C193.370316,475.189819 151.830246,476.807739 124.137627,451.871155 
z"/>
</svg>